<?xml version="1.0" encoding="utf-8"?>
<!-- Generator: Adobe Illustrator 21.1.0, SVG Export Plug-In . SVG Version: 6.00 Build 0)  -->
<svg version="1.1" id="Layer_1" xmlns="http://www.w3.org/2000/svg" xmlns:xlink="http://www.w3.org/1999/xlink" x="0px" y="0px"
	 viewBox="0 0 500 800" style="enable-background:new 0 0 500 800;" xml:space="preserve">
<style type="text/css">
	.st0{fill:url(#SVGID_1_);}
	.st1{fill:#FFC476;}
	.st2{fill:#42403C;}
	.st3{fill:#4C4CD3;}
	.st4{fill:#FFFFFF;}
	.st5{fill:#333333;}
	.st6{fill:none;stroke:#333333;stroke-width:2;stroke-miterlimit:10;}
	.st7{fill:none;stroke:#FFFFFF;stroke-width:2;stroke-linecap:round;stroke-linejoin:round;stroke-miterlimit:10;}
	.st8{fill:none;stroke:#FFFFFF;stroke-linecap:round;stroke-linejoin:round;stroke-miterlimit:10;}
	.st9{fill-rule:evenodd;clip-rule:evenodd;fill:#4C4CD3;}
	.st10{fill:#665340;}
	.st11{fill:#2D2D2D;}
</style>
<linearGradient id="SVGID_1_" gradientUnits="userSpaceOnUse" x1="23.0347" y1="626.9653" x2="464.5557" y2="185.4443" gradientTransform="matrix(1 0 0 -1 0 800)">
	<stop  offset="0" style="stop-color:#E0EBFC"/>
	<stop  offset="1" style="stop-color:#EDFFE2"/>
</linearGradient>
<rect class="st0" width="500" height="800"/>
<rect x="236.5" y="300" class="st1" width="27" height="30"/>
<g>
	<circle class="st1" cx="250" cy="228.5" r="81.5"/>
</g>
<circle class="st2" cx="250" cy="225" r="7"/>
<g id="Right_arm">
	<path class="st1" d="M376.8,431.2l-88.1-56.4c-6.8-4.4-8.8-13.5-4.5-20.3l0,0c4.4-6.8,13.5-8.8,20.3-4.5l88.1,56.4
		c6.8,4.4,8.8,13.5,4.5,20.3l0,0C392.7,433.6,383.6,435.6,376.8,431.2z"/>
	<circle class="st1" cx="389.5" cy="424.5" r="24.5"/>
</g>
<g id="Left_arm">
	<path class="st1" d="M123.5,431.2l88.1-56.4c6.8-4.4,8.8-13.5,4.5-20.3l0,0c-4.4-6.8-13.5-8.8-20.3-4.5l-88.1,56.4
		c-6.8,4.4-8.8,13.5-4.5,20.3l0,0C107.6,433.6,116.7,435.6,123.5,431.2z"/>
	<circle class="st1" cx="106.5" cy="424.5" r="24.5"/>
</g>
<path class="st1" d="M308.3,702.3v-168c0-8.1-6.6-14.7-14.7-14.7l0,0c-8.1,0-14.7,6.6-14.7,14.7v168c0,8.1,6.6,14.7,14.7,14.7l0,0
	C301.7,717,308.3,710.4,308.3,702.3z"/>
<path class="st1" d="M223.3,702.3v-168c0-8.1-6.6-14.7-14.7-14.7l0,0c-8.1,0-14.7,6.6-14.7,14.7v168c0,8.1,6.6,14.7,14.7,14.7l0,0
	C216.7,717,223.3,710.4,223.3,702.3z"/>
<g id="Body">
	<g>
		<path class="st1" d="M250.5,570L250.5,570c-36.2,0-65.5-29.3-65.5-65.5v-117c0-36.2,29.3-65.5,65.5-65.5l0,0
			c36.2,0,65.5,29.3,65.5,65.5v117C316,540.7,286.7,570,250.5,570z"/>
	</g>
</g>
<g id="Eyes">
	<circle class="st2" cx="223.7" cy="210" r="5.6"/>
	<circle class="st2" cx="276.3" cy="210" r="5.6"/>
</g>
<g id="Mouth">
	<g id="meh">
		<path class="st2" d="M276.3,255.2h-52.6c-1,0-1.9-0.8-1.9-1.9s0.8-1.9,1.9-1.9h52.6c1,0,1.9,0.8,1.9,1.9S277.3,255.2,276.3,255.2z
			"/>
	</g>
</g>
<path class="st1" d="M217.5,717h-73.2c-3.5,0-6.1-2.3-5.7-5c1.8-11.3,13.7-37.8,84.7-37.8l0,0v38.3C223.3,715,220.7,717,217.5,717z"
	/>
<path class="st1" d="M284.7,717h73.2c3.5,0,6.1-2.3,5.7-5c-1.8-11.3-13.7-37.8-84.7-37.8l0,0v38.3C278.9,715,281.5,717,284.7,717z"
	/>
<g>
	<polygon class="st3" points="276.8,863.1 276.8,872.7 367.9,872.7 367.9,863.1 348.1,863.1 358.5,834.6 330.1,820.6 312.7,863.1 	
		"/>
	<polygon class="st4" points="353.4,832.1 342,863.1 336.9,863.1 349.6,830.2 	"/>
	<polygon class="st4" points="345.7,828.3 333,863.1 327.9,863.1 342,826.5 	"/>
	<polygon class="st4" points="338.1,824.5 324,863.1 318.9,863.1 334.5,822.7 	"/>
</g>
<rect x="562.9" y="216.3" style="fill:none;" width="332.9" height="112.5"/>
<g id="tBrEhB_1_">
	
		<image style="overflow:visible;" width="550" height="426" id="tBrEhB" xlink:href="A32E55D5E823A7ED.png"  transform="matrix(1 0 0 1 525.1328 529.4771)">
	</image>
</g>
<g>
	<path class="st5" d="M-7.5,659.1v27h-0.1V719h-91.1c-0.4-24.6,21.2-34.3,37.4-38c10.2-2.4,17.5-11.4,17.5-21.9l0,0H-7.5z"/>
	<polygon class="st4" points="-98.7,719 -71.3,719 -71.3,723.8 -71.3,728.6 -98.7,728.6 	"/>
	<line class="st6" x1="-7.5" y1="723.8" x2="-71.3" y2="723.8"/>
	<path class="st4" d="M-98.7,719h20v-31.7C-89.7,693.1-98.9,702.8-98.7,719z"/>
	<line class="st7" x1="-76" y1="684.3" x2="-66.6" y2="693.1"/>
	<line class="st7" x1="-74.4" y1="683.3" x2="-73.8" y2="695.7"/>
	<line class="st7" x1="-63.3" y1="680.6" x2="-53.9" y2="689.4"/>
	<line class="st7" x1="-61.7" y1="679.7" x2="-61.1" y2="692"/>
	<line class="st7" x1="-53.1" y1="675.9" x2="-42" y2="682.4"/>
	<line class="st7" x1="-51.8" y1="674.6" x2="-48.4" y2="686.6"/>
	<line class="st7" x1="-46.9" y1="668.8" x2="-34.1" y2="670.2"/>
	<line class="st7" x1="-46.3" y1="667.1" x2="-38.3" y2="676.7"/>
	<circle class="st8" cx="-41.4" cy="712" r="1.3"/>
	<circle class="st8" cx="-34.2" cy="712" r="1.3"/>
	<circle class="st4" cx="-23.6" cy="695.6" r="8.7"/>
	<path class="st9" d="M-23.6,689.1l-1.6,4.6h-5l3.8,2.9l-1.3,4.8l4-2.9l4.1,2.9l-1.3-4.8l3.8-2.8l-5,0
		C-22,693.6-23.6,689-23.6,689.1L-23.6,689.1z"/>
	<g>
		<rect x="-113.7" y="785" class="st4" width="91.1" height="9.6"/>
	</g>
	<g>
		<path class="st5" d="M-22.5,725.1v27h-0.1V785h-91.1c-0.4-24.6,21.2-34.3,37.4-38c10.2-2.4,17.5-11.4,17.5-21.9l0,0H-22.5z"/>
	</g>
	<g>
		<polygon class="st4" points="-113.7,785 -86.3,785 -86.3,789.8 -86.3,794.6 -113.7,794.6 		"/>
	</g>
	<g>
		<rect x="-86.3" y="788.8" class="st5" width="63.8" height="2"/>
	</g>
	<g>
		<path class="st4" d="M-113.7,785h20v-31.7C-104.7,759.1-113.9,768.8-113.7,785z"/>
	</g>
	<g>
		<path class="st4" d="M-73.3,758c-0.2,0-0.5-0.1-0.7-0.3l-9.4-8.9c-0.4-0.4-0.4-1,0-1.4c0.4-0.4,1-0.4,1.4,0l9.4,8.9
			c0.4,0.4,0.4,1,0,1.4C-72.8,757.9-73,758-73.3,758z"/>
	</g>
	<g>
		<path class="st4" d="M-83.7,760.2c-0.5-0.2-0.8-0.7-0.6-1.2l3.7-11.9c0.2-0.5,0.7-0.8,1.3-0.7c0.5,0.1,0.8,0.7,0.7,1.3l-3.7,11.9
			C-82.6,760.1-83.2,760.4-83.7,760.2C-83.7,760.3-83.7,760.3-83.7,760.2z"/>
	</g>
	<g>
		<path class="st4" d="M-63.9,754c-0.2,0-0.5,0-0.7-0.2l-10.4-7.6c-0.4-0.3-0.5-0.9-0.2-1.4c0.3-0.4,0.9-0.5,1.4-0.2l10.4,7.6
			c0.4,0.3,0.5,0.9,0.2,1.4C-63.4,753.8-63.7,753.9-63.9,754z"/>
	</g>
	<g>
		<path class="st4" d="M-73.3,758c-0.5-0.1-0.9-0.5-0.9-1.1l0.8-12.3c0-0.6,0.5-1,1.1-0.9c0.5,0,1,0.5,0.9,1.1l-0.8,12.3
			C-72.3,757.6-72.7,758-73.3,758C-73.3,758-73.3,758-73.3,758z"/>
	</g>
	<g>
		<path class="st4" d="M-56.4,748.6c-0.2,0-0.3,0-0.5-0.1l-11.9-4.9c-0.5-0.2-0.8-0.8-0.5-1.3c0.2-0.5,0.8-0.8,1.3-0.5l11.9,4.9
			c0.5,0.2,0.8,0.8,0.5,1.3C-55.8,748.3-56.1,748.5-56.4,748.6z"/>
	</g>
	<g>
		<path class="st4" d="M-64.2,754.1c-0.4,0-0.8-0.4-0.9-0.8l-2.1-11.7c-0.1-0.5,0.3-1,0.8-1.1c0.5-0.1,1.1,0.3,1.2,0.8l2.1,11.7
			c0.1,0.5-0.3,1-0.8,1.1C-64,754.1-64.1,754.1-64.2,754.1z"/>
	</g>
	<g>
		<path class="st4" d="M-52.7,741.2C-52.7,741.2-52.8,741.2-52.7,741.2l-11.3-2c-0.5-0.1-0.8-0.6-0.7-1.1c0.1-0.5,0.5-0.9,1-0.8
			l11.2,2c0.5,0.1,0.8,0.6,0.7,1.1C-51.8,740.8-52.3,741.2-52.7,741.2z"/>
	</g>
	<g>
		<path class="st4" d="M-56.9,747.9c-0.3-0.1-0.6-0.3-0.7-0.6l-5.5-10.5c-0.2-0.5,0-0.9,0.5-1c0.5-0.1,1.2,0.2,1.4,0.7l5.5,10.5
			c0.2,0.5,0,0.9-0.5,1C-56.4,748-56.6,748-56.9,747.9z"/>
	</g>
	<g>
		<path class="st4" d="M-56.4,779.8c-1,0-1.8-0.8-1.8-1.8s0.8-1.8,1.8-1.8c1,0,1.8,0.8,1.8,1.8S-55.4,779.8-56.4,779.8z
			 M-56.4,777.2c-0.5,0-0.8,0.4-0.8,0.8s0.4,0.8,0.8,0.8c0.5,0,0.8-0.4,0.8-0.8S-56,777.2-56.4,777.2z"/>
	</g>
	<g>
		<path class="st4" d="M-49.2,779.8c-1,0-1.8-0.8-1.8-1.8s0.8-1.8,1.8-1.8c1,0,1.8,0.8,1.8,1.8S-48.2,779.8-49.2,779.8z
			 M-49.2,777.2c-0.5,0-0.8,0.4-0.8,0.8s0.4,0.8,0.8,0.8c0.5,0,0.8-0.4,0.8-0.8S-48.8,777.2-49.2,777.2z"/>
	</g>
	<g>
		<circle class="st4" cx="-38.6" cy="761.6" r="8.7"/>
	</g>
	<g>
		<path class="st9" d="M-38.6,755.1l-1.6,4.6h-5l3.8,2.9l-1.3,4.8l4-2.9l4.1,2.9l-1.3-4.8l3.8-2.8l-5,0
			C-37,759.6-38.6,755-38.6,755.1L-38.6,755.1z"/>
	</g>
</g>
<g id="right_x5F_converse">
	<g>
		<rect x="204.5" y="910.8" class="st4" width="91.1" height="9.6"/>
	</g>
	<g>
		<path class="st5" d="M204.4,850.9v27h0.1v32.9h91.1c0.4-24.6-21.2-34.3-37.4-38c-10.2-2.4-17.5-11.4-17.5-21.9l0,0H204.4z"/>
	</g>
	<g>
		<polygon class="st4" points="295.6,920.4 268.2,920.4 268.2,915.6 268.2,910.8 295.6,910.8 		"/>
	</g>
	<g>
		<rect x="204.4" y="914.6" class="st5" width="63.8" height="2"/>
	</g>
	<g>
		<path class="st4" d="M295.6,910.8h-20v-31.7C286.6,884.9,295.8,894.6,295.6,910.8z"/>
	</g>
	<g>
		<path class="st4" d="M255.2,883.8c0.2,0,0.5-0.1,0.7-0.3l9.4-8.9c0.4-0.4,0.4-1,0-1.4c-0.4-0.4-1-0.4-1.4,0l-9.4,8.9
			c-0.4,0.4-0.4,1,0,1.4C254.7,883.7,254.9,883.8,255.2,883.8z"/>
	</g>
	<g>
		<path class="st4" d="M265.6,886.1c0.5-0.2,0.8-0.7,0.6-1.2l-3.7-11.9c-0.2-0.5-0.7-0.8-1.3-0.7c-0.5,0.1-0.8,0.7-0.7,1.3l3.7,11.9
			C264.5,886,265.1,886.3,265.6,886.1C265.6,886.1,265.6,886.1,265.6,886.1z"/>
	</g>
	<g>
		<path class="st4" d="M245.8,879.8c0.2,0,0.5,0,0.7-0.2l10.4-7.6c0.4-0.3,0.5-0.9,0.2-1.4c-0.3-0.4-0.9-0.5-1.4-0.2l-10.4,7.6
			c-0.4,0.3-0.5,0.9-0.2,1.4C245.3,879.6,245.6,879.8,245.8,879.8z"/>
	</g>
	<g>
		<path class="st4" d="M255.2,883.8c0.5-0.1,0.9-0.5,0.9-1.1l-0.8-12.3c0-0.6-0.5-1-1.1-0.9c-0.5,0-1,0.5-0.9,1.1l0.8,12.3
			C254.2,883.4,254.6,883.8,255.2,883.8C255.2,883.8,255.2,883.8,255.2,883.8z"/>
	</g>
	<g>
		<path class="st4" d="M238.3,874.4c0.2,0,0.3,0,0.5-0.1l11.9-4.9c0.5-0.2,0.8-0.8,0.5-1.3c-0.2-0.5-0.8-0.8-1.3-0.5l-11.9,4.9
			c-0.5,0.2-0.8,0.8-0.5,1.3C237.7,874.2,238,874.4,238.3,874.4z"/>
	</g>
	<g>
		<path class="st4" d="M246.1,879.9c0.4,0,0.8-0.4,0.9-0.8l2.1-11.7c0.1-0.5-0.3-1-0.8-1.1c-0.5-0.1-1.1,0.3-1.2,0.8l-2.1,11.7
			c-0.1,0.5,0.3,1,0.8,1.1C245.9,879.9,246,879.9,246.1,879.9z"/>
	</g>
	<g>
		<path class="st4" d="M234.6,867C234.6,867,234.7,867,234.6,867l11.3-2c0.5-0.1,0.8-0.6,0.7-1.1c-0.1-0.5-0.5-0.9-1-0.8l-11.2,2
			c-0.5,0.1-0.8,0.6-0.7,1.1C233.7,866.7,234.1,867,234.6,867z"/>
	</g>
	<g>
		<path class="st4" d="M238.8,873.7c0.3-0.1,0.6-0.3,0.7-0.6l5.5-10.5c0.2-0.5,0-0.9-0.5-1c-0.5-0.1-1.2,0.2-1.4,0.7l-5.5,10.5
			c-0.2,0.5,0,0.9,0.5,1C238.3,873.9,238.5,873.8,238.8,873.7z"/>
	</g>
	<g>
		<path class="st4" d="M236.5,903.8c0-1,0.8-1.8,1.8-1.8c1,0,1.8,0.8,1.8,1.8s-0.8,1.8-1.8,1.8C237.3,905.7,236.5,904.8,236.5,903.8
			z M237.5,903.8c0,0.5,0.4,0.8,0.8,0.8c0.5,0,0.8-0.4,0.8-0.8s-0.4-0.8-0.8-0.8C237.9,903,237.5,903.4,237.5,903.8z"/>
	</g>
	<g>
		<path class="st4" d="M229.3,903.8c0-1,0.8-1.8,1.8-1.8c1,0,1.8,0.8,1.8,1.8s-0.8,1.8-1.8,1.8C230.1,905.7,229.3,904.8,229.3,903.8
			z M230.3,903.8c0,0.5,0.4,0.8,0.8,0.8c0.5,0,0.8-0.4,0.8-0.8s-0.4-0.8-0.8-0.8C230.7,903,230.3,903.4,230.3,903.8z"/>
	</g>
	<g>
		<circle class="st4" cx="220.5" cy="887.5" r="8.7"/>
	</g>
	<g>
		<path class="st9" d="M220.5,880.9l1.6,4.6h5l-3.8,2.9l1.3,4.8l-4-2.9l-4.1,2.9l1.3-4.8l-3.8-2.8l5,0
			C218.9,885.5,220.5,880.8,220.5,880.9L220.5,880.9z"/>
	</g>
</g>
<g id="left_x5F_converse">
	<g>
		<rect x="103.4" y="912.7" class="st4" width="91.1" height="9.6"/>
	</g>
	<g>
		<path class="st5" d="M194.6,852.8v27h-0.1v32.9h-91.1c-0.4-24.6,21.2-34.3,37.4-38c10.2-2.4,17.5-11.4,17.5-21.9v0H194.6z"/>
	</g>
	<g>
		<polygon class="st4" points="103.4,912.7 130.8,912.7 130.8,917.5 130.8,922.3 103.4,922.3 		"/>
	</g>
	<g>
		<rect x="130.8" y="916.5" class="st5" width="63.8" height="2"/>
	</g>
	<g>
		<path class="st4" d="M103.4,912.7h20V881C112.4,886.8,103.2,896.5,103.4,912.7z"/>
	</g>
	<g>
		<path class="st4" d="M143.8,885.7c-0.2,0-0.5-0.1-0.7-0.3l-9.4-8.9c-0.4-0.4-0.4-1,0-1.4c0.4-0.4,1-0.4,1.4,0l9.4,8.9
			c0.4,0.4,0.4,1,0,1.4C144.3,885.6,144,885.7,143.8,885.7z"/>
	</g>
	<g>
		<path class="st4" d="M133.4,888c-0.5-0.2-0.8-0.7-0.6-1.2l3.7-11.9c0.2-0.5,0.7-0.8,1.3-0.7c0.5,0.1,0.8,0.7,0.7,1.3l-3.7,11.9
			C134.5,887.9,133.9,888.1,133.4,888C133.4,888,133.4,888,133.4,888z"/>
	</g>
	<g>
		<path class="st4" d="M153.2,881.7c-0.2,0-0.5,0-0.7-0.2L142,874c-0.4-0.3-0.5-0.9-0.2-1.4c0.3-0.4,0.9-0.5,1.4-0.2l10.4,7.6
			c0.4,0.3,0.5,0.9,0.2,1.4C153.7,881.5,153.4,881.7,153.2,881.7z"/>
	</g>
	<g>
		<path class="st4" d="M143.8,885.7c-0.5-0.1-0.9-0.5-0.9-1.1l0.8-12.3c0-0.6,0.5-1,1.1-0.9c0.5,0,1,0.5,0.9,1.1l-0.8,12.3
			C144.8,885.3,144.4,885.7,143.8,885.7C143.8,885.7,143.8,885.7,143.8,885.7z"/>
	</g>
	<g>
		<path class="st4" d="M160.7,876.3c-0.2,0-0.3,0-0.5-0.1l-11.9-4.9c-0.5-0.2-0.8-0.8-0.5-1.3c0.2-0.5,0.8-0.8,1.3-0.5l11.9,4.9
			c0.5,0.2,0.8,0.8,0.5,1.3C161.3,876,161,876.3,160.7,876.3z"/>
	</g>
	<g>
		<path class="st4" d="M152.9,881.8c-0.4,0-0.8-0.4-0.9-0.8l-2.1-11.7c-0.1-0.5,0.3-1,0.8-1.1c0.5-0.1,1.1,0.3,1.2,0.8l2.1,11.7
			c0.1,0.5-0.3,1-0.8,1.1C153.1,881.8,153,881.8,152.9,881.8z"/>
	</g>
	<g>
		<path class="st4" d="M164.4,868.9C164.4,868.9,164.3,868.9,164.4,868.9l-11.3-2c-0.5-0.1-0.8-0.6-0.7-1.1c0.1-0.5,0.5-0.9,1-0.8
			l11.2,2c0.5,0.1,0.8,0.6,0.7,1.1C165.3,868.6,164.8,868.9,164.4,868.9z"/>
	</g>
	<g>
		<path class="st4" d="M160.2,875.6c-0.3-0.1-0.6-0.3-0.7-0.6l-5.5-10.5c-0.2-0.5,0-0.9,0.5-1c0.5-0.1,1.2,0.2,1.4,0.7l5.5,10.5
			c0.2,0.5,0,0.9-0.5,1C160.7,875.8,160.5,875.7,160.2,875.6z"/>
	</g>
	<g>
		<path class="st4" d="M160.7,907.5c-1,0-1.8-0.8-1.8-1.8s0.8-1.8,1.8-1.8c1,0,1.8,0.8,1.8,1.8S161.7,907.5,160.7,907.5z
			 M160.7,904.9c-0.5,0-0.8,0.4-0.8,0.8s0.4,0.8,0.8,0.8c0.5,0,0.8-0.4,0.8-0.8S161.1,904.9,160.7,904.9z"/>
	</g>
	<g>
		<path class="st4" d="M167.9,907.5c-1,0-1.8-0.8-1.8-1.8s0.8-1.8,1.8-1.8c1,0,1.8,0.8,1.8,1.8S168.9,907.5,167.9,907.5z
			 M167.9,904.9c-0.5,0-0.8,0.4-0.8,0.8s0.4,0.8,0.8,0.8c0.5,0,0.8-0.4,0.8-0.8S168.3,904.9,167.9,904.9z"/>
	</g>
	<g>
		<circle class="st4" cx="178.5" cy="889.4" r="8.7"/>
	</g>
	<g>
		<path class="st9" d="M178.5,882.8l-1.6,4.6h-5l3.8,2.9l-1.3,4.8l4-2.9l4.1,2.9l-1.3-4.8l3.8-2.8l-5,0
			C180.1,887.4,178.5,882.7,178.5,882.8L178.5,882.8z"/>
	</g>
</g>
<path class="st10" d="M219.4,721h-80.7c-3.9,0-6.7-2.5-6.3-5.5c1.6-10.3,10.9-34.3,58.5-41.5c11.7,3.5,23.3,3.5,34.8-0.2l0,0V716
	C225.8,718.8,223,721,219.4,721z"/>
<g id="left_x5F_shoe">
	<g>
		<path class="st10" d="M219.4,721h-80.7c-3.9,0-6.7-2.5-6.3-5.5c1.6-10.3,10.9-34.3,58.5-41.5c11.7,3.5,23.3,3.5,34.8-0.2l0,0V716
			C225.8,718.8,223,721,219.4,721z"/>
	</g>
	<g>
		<polygon class="st11" points="225.8,719.5 225.8,726.2 200.6,726.2 200.6,724 132.4,724 132.4,719.5 		"/>
	</g>
	<g>
		<path class="st11" d="M166.3,697.1c-0.4,0-0.8-0.1-1.1-0.4l-10.4-10.4c-0.6-0.6-0.6-1.5,0-2.1c0.6-0.6,1.5-0.6,2.1,0l10.4,10.4
			c0.6,0.6,0.6,1.5,0,2.1C167.1,696.9,166.7,697.1,166.3,697.1z"/>
	</g>
	<g>
		<path class="st11" d="M173.5,693.5c-0.4,0-0.8-0.1-1.1-0.4L162,682.6c-0.6-0.6-0.6-1.5,0-2.1s1.5-0.6,2.1,0l10.4,10.4
			c0.6,0.6,0.6,1.5,0,2.1C174.3,693.3,173.9,693.5,173.5,693.5z"/>
	</g>
	<g>
		<path class="st11" d="M181.1,690.6c-0.4,0-0.8-0.1-1.1-0.4l-10.4-10.4c-0.6-0.6-0.6-1.5,0-2.1s1.5-0.6,2.1,0l10.4,10.4
			c0.6,0.6,0.6,1.5,0,2.1C181.9,690.5,181.5,690.6,181.1,690.6z"/>
	</g>
</g>
<g id="right_x5F_shoe">
	<g>
		<path class="st10" d="M276.2,716.4v-42.2l0,0c11.5,3.7,23.1,3.7,34.8,0.2c47.6,7.2,56.9,31.1,58.5,41.5c0.4,3-2.4,5.5-6.3,5.5
			h-80.7C279.1,721.4,276.2,719.2,276.2,716.4z"/>
	</g>
	<g>
		<polygon class="st11" points="276.2,719.9 276.2,726.6 301.5,726.6 301.5,724.4 369.6,724.4 369.6,719.9 		"/>
	</g>
	<g>
		<path class="st11" d="M335.7,697.5c0.4,0,0.8-0.1,1.1-0.4l10.4-10.4c0.6-0.6,0.6-1.5,0-2.1c-0.6-0.6-1.5-0.6-2.1,0l-10.4,10.4
			c-0.6,0.6-0.6,1.5,0,2.1C334.9,697.3,335.3,697.5,335.7,697.5z"/>
	</g>
	<g>
		<path class="st11" d="M328.5,693.9c0.4,0,0.8-0.1,1.1-0.4L340,683c0.6-0.6,0.6-1.5,0-2.1s-1.5-0.6-2.1,0l-10.4,10.4
			c-0.6,0.6-0.6,1.5,0,2.1C327.7,693.7,328.1,693.9,328.5,693.9z"/>
	</g>
	<g>
		<path class="st11" d="M320.9,691c0.4,0,0.8-0.1,1.1-0.4l10.4-10.4c0.6-0.6,0.6-1.5,0-2.1s-1.5-0.6-2.1,0l-10.4,10.4
			c-0.6,0.6-0.6,1.5,0,2.1C320.2,690.9,320.6,691,320.9,691z"/>
	</g>
</g>
</svg>
