<?xml version="1.0" encoding="utf-8"?>
<!-- Generator: Adobe Illustrator 21.1.0, SVG Export Plug-In . SVG Version: 6.00 Build 0)  -->
<svg version="1.1" id="Layer_1" xmlns="http://www.w3.org/2000/svg" xmlns:xlink="http://www.w3.org/1999/xlink" x="0px" y="0px"
	 viewBox="0 0 500 800" style="enable-background:new 0 0 500 800;" xml:space="preserve">
<style type="text/css">
	.st0{fill:url(#SVGID_1_);}
	.st1{fill:#FFC476;}
	.st2{fill:#42403C;}
	.st3{fill:#4C4CD3;}
	.st4{fill:#FFFFFF;}
	.st5{fill:#333333;}
	.st6{fill:none;stroke:#333333;stroke-width:2;stroke-miterlimit:10;}
	.st7{fill:none;stroke:#FFFFFF;stroke-width:2;stroke-linecap:round;stroke-linejoin:round;stroke-miterlimit:10;}
	.st8{fill:none;stroke:#FFFFFF;stroke-linecap:round;stroke-linejoin:round;stroke-miterlimit:10;}
	.st9{fill-rule:evenodd;clip-rule:evenodd;fill:#4C4CD3;}
	.st10{fill:#665340;}
	.st11{fill:#2D2D2D;}
	.st12{fill:none;}
	.st13{fill:#4952F2;}
	.st14{fill:#93CCC9;}
</style>
<linearGradient id="SVGID_1_" gradientUnits="userSpaceOnUse" x1="23.0347" y1="626.9653" x2="464.5557" y2="185.4443" gradientTransform="matrix(-1 0 0 1 500 0)">
	<stop  offset="0" style="stop-color:#E0EBFC"/>
	<stop  offset="1" style="stop-color:#EDFFE2"/>
</linearGradient>
<rect class="st0" width="500" height="800"/>
<rect x="236.5" y="300" class="st1" width="27" height="30"/>
<g>
	<circle class="st1" cx="250" cy="228.5" r="81.5"/>
</g>
<circle class="st2" cx="250" cy="225" r="7"/>
<g id="Right_arm">
	<path class="st1" d="M376.8,431.2l-88.1-56.4c-6.8-4.4-8.8-13.5-4.5-20.3l0,0c4.4-6.8,13.5-8.8,20.3-4.5l88.1,56.4
		c6.8,4.4,8.8,13.5,4.5,20.3l0,0C392.7,433.6,383.6,435.6,376.8,431.2z"/>
	<circle class="st1" cx="389.5" cy="424.5" r="24.5"/>
</g>
<g id="Left_arm">
	<path class="st1" d="M123.5,431.2l88.1-56.4c6.8-4.4,8.8-13.5,4.5-20.3l0,0c-4.4-6.8-13.5-8.8-20.3-4.5l-88.1,56.4
		c-6.8,4.4-8.8,13.5-4.5,20.3l0,0C107.6,433.6,116.7,435.6,123.5,431.2z"/>
	<circle class="st1" cx="106.5" cy="424.5" r="24.5"/>
</g>
<path class="st1" d="M308.3,702.3v-168c0-8.1-6.6-14.7-14.7-14.7l0,0c-8.1,0-14.7,6.6-14.7,14.7v168c0,8.1,6.6,14.7,14.7,14.7l0,0
	C301.7,717,308.3,710.4,308.3,702.3z"/>
<path class="st1" d="M223.3,702.3v-168c0-8.1-6.6-14.7-14.7-14.7l0,0c-8.1,0-14.7,6.6-14.7,14.7v168c0,8.1,6.6,14.7,14.7,14.7l0,0
	C216.7,717,223.3,710.4,223.3,702.3z"/>
<g id="Body">
	<g>
		<path class="st1" d="M250.5,570L250.5,570c-36.2,0-65.5-29.3-65.5-65.5v-117c0-36.2,29.3-65.5,65.5-65.5l0,0
			c36.2,0,65.5,29.3,65.5,65.5v117C316,540.7,286.7,570,250.5,570z"/>
	</g>
</g>
<g id="Eyes">
	<circle class="st2" cx="223.7" cy="210" r="5.6"/>
	<circle class="st2" cx="276.3" cy="210" r="5.6"/>
</g>
<path class="st1" d="M217.5,717h-73.2c-3.5,0-6.1-2.3-5.7-5c1.8-11.3,13.7-37.8,84.7-37.8l0,0v38.3C223.3,715,220.7,717,217.5,717z"
	/>
<path class="st1" d="M284.7,717h73.2c3.5,0,6.1-2.3,5.7-5c-1.8-11.3-13.7-37.8-84.7-37.8l0,0v38.3C278.9,715,281.5,717,284.7,717z"
	/>
<g>
	<polygon class="st3" points="276.8,863.1 276.8,872.7 367.9,872.7 367.9,863.1 348.1,863.1 358.5,834.6 330.1,820.6 312.7,863.1
		"/>
	<polygon class="st4" points="353.4,832.1 342,863.1 336.9,863.1 349.6,830.2 	"/>
	<polygon class="st4" points="345.7,828.3 333,863.1 327.9,863.1 342,826.5 	"/>
	<polygon class="st4" points="338.1,824.5 324,863.1 318.9,863.1 334.5,822.7 	"/>
</g>
<rect x="562.9" y="216.3" class="st12" width="332.9" height="112.5"/>
<g id="tBrEhB_1_">

		<image style="overflow:visible;" width="550" height="426" id="tBrEhB" xlink:href="4472F380F9F6BAE.png"  transform="matrix(1 0 0 1 525.1328 529.4771)">
	</image>
</g>
<g>
	<path class="st5" d="M-7.5,659.1v27h-0.1V719h-91.1c-0.4-24.6,21.2-34.3,37.4-38c10.2-2.4,17.5-11.4,17.5-21.9l0,0H-7.5z"/>
	<polygon class="st4" points="-98.7,719 -71.3,719 -71.3,723.8 -71.3,728.6 -98.7,728.6 	"/>
	<line class="st6" x1="-7.5" y1="723.8" x2="-71.3" y2="723.8"/>
	<path class="st4" d="M-98.7,719h20v-31.7C-89.7,693.1-98.9,702.8-98.7,719z"/>
	<line class="st7" x1="-76" y1="684.3" x2="-66.6" y2="693.1"/>
	<line class="st7" x1="-74.4" y1="683.3" x2="-73.8" y2="695.7"/>
	<line class="st7" x1="-63.3" y1="680.6" x2="-53.9" y2="689.4"/>
	<line class="st7" x1="-61.7" y1="679.7" x2="-61.1" y2="692"/>
	<line class="st7" x1="-53.1" y1="675.9" x2="-42" y2="682.4"/>
	<line class="st7" x1="-51.8" y1="674.6" x2="-48.4" y2="686.6"/>
	<line class="st7" x1="-46.9" y1="668.8" x2="-34.1" y2="670.2"/>
	<line class="st7" x1="-46.3" y1="667.1" x2="-38.3" y2="676.7"/>
	<circle class="st8" cx="-41.4" cy="712" r="1.3"/>
	<circle class="st8" cx="-34.2" cy="712" r="1.3"/>
	<circle class="st4" cx="-23.6" cy="695.6" r="8.7"/>
	<path class="st9" d="M-23.6,689.1l-1.6,4.6h-5l3.8,2.9l-1.3,4.8l4-2.9l4.1,2.9l-1.3-4.8l3.8-2.8l-5,0
		C-22,693.6-23.6,689-23.6,689.1L-23.6,689.1z"/>
	<g>
		<rect x="-113.7" y="785" class="st4" width="91.1" height="9.6"/>
	</g>
	<g>
		<path class="st5" d="M-22.5,725.1v27h-0.1V785h-91.1c-0.4-24.6,21.2-34.3,37.4-38c10.2-2.4,17.5-11.4,17.5-21.9l0,0H-22.5z"/>
	</g>
	<g>
		<polygon class="st4" points="-113.7,785 -86.3,785 -86.3,789.8 -86.3,794.6 -113.7,794.6 		"/>
	</g>
	<g>
		<rect x="-86.3" y="788.8" class="st5" width="63.8" height="2"/>
	</g>
	<g>
		<path class="st4" d="M-113.7,785h20v-31.7C-104.7,759.1-113.9,768.8-113.7,785z"/>
	</g>
	<g>
		<path class="st4" d="M-73.3,758c-0.2,0-0.5-0.1-0.7-0.3l-9.4-8.9c-0.4-0.4-0.4-1,0-1.4c0.4-0.4,1-0.4,1.4,0l9.4,8.9
			c0.4,0.4,0.4,1,0,1.4C-72.8,757.9-73,758-73.3,758z"/>
	</g>
	<g>
		<path class="st4" d="M-83.7,760.2c-0.5-0.2-0.8-0.7-0.6-1.2l3.7-11.9c0.2-0.5,0.7-0.8,1.3-0.7c0.5,0.1,0.8,0.7,0.7,1.3l-3.7,11.9
			C-82.6,760.1-83.2,760.4-83.7,760.2C-83.7,760.3-83.7,760.3-83.7,760.2z"/>
	</g>
	<g>
		<path class="st4" d="M-63.9,754c-0.2,0-0.5,0-0.7-0.2l-10.4-7.6c-0.4-0.3-0.5-0.9-0.2-1.4c0.3-0.4,0.9-0.5,1.4-0.2l10.4,7.6
			c0.4,0.3,0.5,0.9,0.2,1.4C-63.4,753.8-63.7,753.9-63.9,754z"/>
	</g>
	<g>
		<path class="st4" d="M-73.3,758c-0.5-0.1-0.9-0.5-0.9-1.1l0.8-12.3c0-0.6,0.5-1,1.1-0.9c0.5,0,1,0.5,0.9,1.1l-0.8,12.3
			C-72.3,757.6-72.7,758-73.3,758C-73.3,758-73.3,758-73.3,758z"/>
	</g>
	<g>
		<path class="st4" d="M-56.4,748.6c-0.2,0-0.3,0-0.5-0.1l-11.9-4.9c-0.5-0.2-0.8-0.8-0.5-1.3c0.2-0.5,0.8-0.8,1.3-0.5l11.9,4.9
			c0.5,0.2,0.8,0.8,0.5,1.3C-55.8,748.3-56.1,748.5-56.4,748.6z"/>
	</g>
	<g>
		<path class="st4" d="M-64.2,754.1c-0.4,0-0.8-0.4-0.9-0.8l-2.1-11.7c-0.1-0.5,0.3-1,0.8-1.1c0.5-0.1,1.1,0.3,1.2,0.8l2.1,11.7
			c0.1,0.5-0.3,1-0.8,1.1C-64,754.1-64.1,754.1-64.2,754.1z"/>
	</g>
	<g>
		<path class="st4" d="M-52.7,741.2C-52.7,741.2-52.8,741.2-52.7,741.2l-11.3-2c-0.5-0.1-0.8-0.6-0.7-1.1c0.1-0.5,0.5-0.9,1-0.8
			l11.2,2c0.5,0.1,0.8,0.6,0.7,1.1C-51.8,740.8-52.3,741.2-52.7,741.2z"/>
	</g>
	<g>
		<path class="st4" d="M-56.9,747.9c-0.3-0.1-0.6-0.3-0.7-0.6l-5.5-10.5c-0.2-0.5,0-0.9,0.5-1c0.5-0.1,1.2,0.2,1.4,0.7l5.5,10.5
			c0.2,0.5,0,0.9-0.5,1C-56.4,748-56.6,748-56.9,747.9z"/>
	</g>
	<g>
		<path class="st4" d="M-56.4,779.8c-1,0-1.8-0.8-1.8-1.8s0.8-1.8,1.8-1.8c1,0,1.8,0.8,1.8,1.8S-55.4,779.8-56.4,779.8z
			 M-56.4,777.2c-0.5,0-0.8,0.4-0.8,0.8s0.4,0.8,0.8,0.8c0.5,0,0.8-0.4,0.8-0.8S-56,777.2-56.4,777.2z"/>
	</g>
	<g>
		<path class="st4" d="M-49.2,779.8c-1,0-1.8-0.8-1.8-1.8s0.8-1.8,1.8-1.8c1,0,1.8,0.8,1.8,1.8S-48.2,779.8-49.2,779.8z
			 M-49.2,777.2c-0.5,0-0.8,0.4-0.8,0.8s0.4,0.8,0.8,0.8c0.5,0,0.8-0.4,0.8-0.8S-48.8,777.2-49.2,777.2z"/>
	</g>
	<g>
		<circle class="st4" cx="-38.6" cy="761.6" r="8.7"/>
	</g>
	<g>
		<path class="st9" d="M-38.6,755.1l-1.6,4.6h-5l3.8,2.9l-1.3,4.8l4-2.9l4.1,2.9l-1.3-4.8l3.8-2.8l-5,0
			C-37,759.6-38.6,755-38.6,755.1L-38.6,755.1z"/>
	</g>
</g>
<g id="right_x5F_converse">
	<g>
		<rect x="204.5" y="910.8" class="st4" width="91.1" height="9.6"/>
	</g>
	<g>
		<path class="st5" d="M204.4,850.9v27h0.1v32.9h91.1c0.4-24.6-21.2-34.3-37.4-38c-10.2-2.4-17.5-11.4-17.5-21.9l0,0H204.4z"/>
	</g>
	<g>
		<polygon class="st4" points="295.6,920.4 268.2,920.4 268.2,915.6 268.2,910.8 295.6,910.8 		"/>
	</g>
	<g>
		<rect x="204.4" y="914.6" class="st5" width="63.8" height="2"/>
	</g>
	<g>
		<path class="st4" d="M295.6,910.8h-20v-31.7C286.6,884.9,295.8,894.6,295.6,910.8z"/>
	</g>
	<g>
		<path class="st4" d="M255.2,883.8c0.2,0,0.5-0.1,0.7-0.3l9.4-8.9c0.4-0.4,0.4-1,0-1.4c-0.4-0.4-1-0.4-1.4,0l-9.4,8.9
			c-0.4,0.4-0.4,1,0,1.4C254.7,883.7,254.9,883.8,255.2,883.8z"/>
	</g>
	<g>
		<path class="st4" d="M265.6,886.1c0.5-0.2,0.8-0.7,0.6-1.2l-3.7-11.9c-0.2-0.5-0.7-0.8-1.3-0.7c-0.5,0.1-0.8,0.7-0.7,1.3l3.7,11.9
			C264.5,886,265.1,886.3,265.6,886.1C265.6,886.1,265.6,886.1,265.6,886.1z"/>
	</g>
	<g>
		<path class="st4" d="M245.8,879.8c0.2,0,0.5,0,0.7-0.2l10.4-7.6c0.4-0.3,0.5-0.9,0.2-1.4c-0.3-0.4-0.9-0.5-1.4-0.2l-10.4,7.6
			c-0.4,0.3-0.5,0.9-0.2,1.4C245.3,879.6,245.6,879.8,245.8,879.8z"/>
	</g>
	<g>
		<path class="st4" d="M255.2,883.8c0.5-0.1,0.9-0.5,0.9-1.1l-0.8-12.3c0-0.6-0.5-1-1.1-0.9c-0.5,0-1,0.5-0.9,1.1l0.8,12.3
			C254.2,883.4,254.6,883.8,255.2,883.8C255.2,883.8,255.2,883.8,255.2,883.8z"/>
	</g>
	<g>
		<path class="st4" d="M238.3,874.4c0.2,0,0.3,0,0.5-0.1l11.9-4.9c0.5-0.2,0.8-0.8,0.5-1.3c-0.2-0.5-0.8-0.8-1.3-0.5l-11.9,4.9
			c-0.5,0.2-0.8,0.8-0.5,1.3C237.7,874.2,238,874.4,238.3,874.4z"/>
	</g>
	<g>
		<path class="st4" d="M246.1,879.9c0.4,0,0.8-0.4,0.9-0.8l2.1-11.7c0.1-0.5-0.3-1-0.8-1.1c-0.5-0.1-1.1,0.3-1.2,0.8l-2.1,11.7
			c-0.1,0.5,0.3,1,0.8,1.1C245.9,879.9,246,879.9,246.1,879.9z"/>
	</g>
	<g>
		<path class="st4" d="M234.6,867C234.6,867,234.7,867,234.6,867l11.3-2c0.5-0.1,0.8-0.6,0.7-1.1c-0.1-0.5-0.5-0.9-1-0.8l-11.2,2
			c-0.5,0.1-0.8,0.6-0.7,1.1C233.7,866.7,234.1,867,234.6,867z"/>
	</g>
	<g>
		<path class="st4" d="M238.8,873.7c0.3-0.1,0.6-0.3,0.7-0.6l5.5-10.5c0.2-0.5,0-0.9-0.5-1c-0.5-0.1-1.2,0.2-1.4,0.7l-5.5,10.5
			c-0.2,0.5,0,0.9,0.5,1C238.3,873.9,238.5,873.8,238.8,873.7z"/>
	</g>
	<g>
		<path class="st4" d="M236.5,903.8c0-1,0.8-1.8,1.8-1.8c1,0,1.8,0.8,1.8,1.8s-0.8,1.8-1.8,1.8C237.3,905.7,236.5,904.8,236.5,903.8
			z M237.5,903.8c0,0.5,0.4,0.8,0.8,0.8c0.5,0,0.8-0.4,0.8-0.8s-0.4-0.8-0.8-0.8C237.9,903,237.5,903.4,237.5,903.8z"/>
	</g>
	<g>
		<path class="st4" d="M229.3,903.8c0-1,0.8-1.8,1.8-1.8c1,0,1.8,0.8,1.8,1.8s-0.8,1.8-1.8,1.8C230.1,905.7,229.3,904.8,229.3,903.8
			z M230.3,903.8c0,0.5,0.4,0.8,0.8,0.8c0.5,0,0.8-0.4,0.8-0.8s-0.4-0.8-0.8-0.8C230.7,903,230.3,903.4,230.3,903.8z"/>
	</g>
	<g>
		<circle class="st4" cx="220.5" cy="887.5" r="8.7"/>
	</g>
	<g>
		<path class="st9" d="M220.5,880.9l1.6,4.6h5l-3.8,2.9l1.3,4.8l-4-2.9l-4.1,2.9l1.3-4.8l-3.8-2.8l5,0
			C218.9,885.5,220.5,880.8,220.5,880.9L220.5,880.9z"/>
	</g>
</g>
<g id="left_x5F_converse">
	<g>
		<rect x="103.4" y="912.7" class="st4" width="91.1" height="9.6"/>
	</g>
	<g>
		<path class="st5" d="M194.6,852.8v27h-0.1v32.9h-91.1c-0.4-24.6,21.2-34.3,37.4-38c10.2-2.4,17.5-11.4,17.5-21.9v0H194.6z"/>
	</g>
	<g>
		<polygon class="st4" points="103.4,912.7 130.8,912.7 130.8,917.5 130.8,922.3 103.4,922.3 		"/>
	</g>
	<g>
		<rect x="130.8" y="916.5" class="st5" width="63.8" height="2"/>
	</g>
	<g>
		<path class="st4" d="M103.4,912.7h20V881C112.4,886.8,103.2,896.5,103.4,912.7z"/>
	</g>
	<g>
		<path class="st4" d="M143.8,885.7c-0.2,0-0.5-0.1-0.7-0.3l-9.4-8.9c-0.4-0.4-0.4-1,0-1.4c0.4-0.4,1-0.4,1.4,0l9.4,8.9
			c0.4,0.4,0.4,1,0,1.4C144.3,885.6,144,885.7,143.8,885.7z"/>
	</g>
	<g>
		<path class="st4" d="M133.4,888c-0.5-0.2-0.8-0.7-0.6-1.2l3.7-11.9c0.2-0.5,0.7-0.8,1.3-0.7c0.5,0.1,0.8,0.7,0.7,1.3l-3.7,11.9
			C134.5,887.9,133.9,888.1,133.4,888C133.4,888,133.4,888,133.4,888z"/>
	</g>
	<g>
		<path class="st4" d="M153.2,881.7c-0.2,0-0.5,0-0.7-0.2L142,874c-0.4-0.3-0.5-0.9-0.2-1.4c0.3-0.4,0.9-0.5,1.4-0.2l10.4,7.6
			c0.4,0.3,0.5,0.9,0.2,1.4C153.7,881.5,153.4,881.7,153.2,881.7z"/>
	</g>
	<g>
		<path class="st4" d="M143.8,885.7c-0.5-0.1-0.9-0.5-0.9-1.1l0.8-12.3c0-0.6,0.5-1,1.1-0.9c0.5,0,1,0.5,0.9,1.1l-0.8,12.3
			C144.8,885.3,144.4,885.7,143.8,885.7C143.8,885.7,143.8,885.7,143.8,885.7z"/>
	</g>
	<g>
		<path class="st4" d="M160.7,876.3c-0.2,0-0.3,0-0.5-0.1l-11.9-4.9c-0.5-0.2-0.8-0.8-0.5-1.3c0.2-0.5,0.8-0.8,1.3-0.5l11.9,4.9
			c0.5,0.2,0.8,0.8,0.5,1.3C161.3,876,161,876.3,160.7,876.3z"/>
	</g>
	<g>
		<path class="st4" d="M152.9,881.8c-0.4,0-0.8-0.4-0.9-0.8l-2.1-11.7c-0.1-0.5,0.3-1,0.8-1.1c0.5-0.1,1.1,0.3,1.2,0.8l2.1,11.7
			c0.1,0.5-0.3,1-0.8,1.1C153.1,881.8,153,881.8,152.9,881.8z"/>
	</g>
	<g>
		<path class="st4" d="M164.4,868.9C164.4,868.9,164.3,868.9,164.4,868.9l-11.3-2c-0.5-0.1-0.8-0.6-0.7-1.1c0.1-0.5,0.5-0.9,1-0.8
			l11.2,2c0.5,0.1,0.8,0.6,0.7,1.1C165.3,868.6,164.8,868.9,164.4,868.9z"/>
	</g>
	<g>
		<path class="st4" d="M160.2,875.6c-0.3-0.1-0.6-0.3-0.7-0.6l-5.5-10.5c-0.2-0.5,0-0.9,0.5-1c0.5-0.1,1.2,0.2,1.4,0.7l5.5,10.5
			c0.2,0.5,0,0.9-0.5,1C160.7,875.8,160.5,875.7,160.2,875.6z"/>
	</g>
	<g>
		<path class="st4" d="M160.7,907.5c-1,0-1.8-0.8-1.8-1.8s0.8-1.8,1.8-1.8c1,0,1.8,0.8,1.8,1.8S161.7,907.5,160.7,907.5z
			 M160.7,904.9c-0.5,0-0.8,0.4-0.8,0.8s0.4,0.8,0.8,0.8c0.5,0,0.8-0.4,0.8-0.8S161.1,904.9,160.7,904.9z"/>
	</g>
	<g>
		<path class="st4" d="M167.9,907.5c-1,0-1.8-0.8-1.8-1.8s0.8-1.8,1.8-1.8c1,0,1.8,0.8,1.8,1.8S168.9,907.5,167.9,907.5z
			 M167.9,904.9c-0.5,0-0.8,0.4-0.8,0.8s0.4,0.8,0.8,0.8c0.5,0,0.8-0.4,0.8-0.8S168.3,904.9,167.9,904.9z"/>
	</g>
	<g>
		<circle class="st4" cx="178.5" cy="889.4" r="8.7"/>
	</g>
	<g>
		<path class="st9" d="M178.5,882.8l-1.6,4.6h-5l3.8,2.9l-1.3,4.8l4-2.9l4.1,2.9l-1.3-4.8l3.8-2.8l-5,0
			C180.1,887.4,178.5,882.7,178.5,882.8L178.5,882.8z"/>
	</g>
</g>
<path class="st10" d="M-188.3,945.9h-80.7c-3.9,0-6.7-2.5-6.3-5.5c1.6-10.3,10.9-34.3,58.5-41.5c11.7,3.5,23.3,3.5,34.8-0.2l0,0
	v42.2C-181.9,943.7-184.7,945.9-188.3,945.9z"/>
<g id="left_x5F_shoe">
	<g>
		<path class="st10" d="M-11.5,976.4h-80.7c-3.9,0-6.7-2.5-6.3-5.5c1.6-10.3,10.9-34.3,58.5-41.5c11.7,3.5,23.3,3.5,34.8-0.2h0v42.2
			C-5.1,974.2-8,976.4-11.5,976.4z"/>
	</g>
	<g>
		<polygon class="st11" points="-5.1,975 -5.1,981.7 -30.4,981.7 -30.4,979.5 -98.5,979.5 -98.5,975 		"/>
	</g>
	<g>
		<path class="st11" d="M-64.6,952.6c-0.4,0-0.8-0.1-1.1-0.4l-10.4-10.4c-0.6-0.6-0.6-1.5,0-2.1c0.6-0.6,1.5-0.6,2.1,0l10.4,10.4
			c0.6,0.6,0.6,1.5,0,2.1C-63.9,952.4-64.2,952.6-64.6,952.6z"/>
	</g>
	<g>
		<path class="st11" d="M-57.4,949c-0.4,0-0.8-0.1-1.1-0.4l-10.4-10.4c-0.6-0.6-0.6-1.5,0-2.1s1.5-0.6,2.1,0l10.4,10.4
			c0.6,0.6,0.6,1.5,0,2.1C-56.7,948.8-57,949-57.4,949z"/>
	</g>
	<g>
		<path class="st11" d="M-49.9,946.1c-0.4,0-0.8-0.1-1.1-0.4l-10.4-10.4c-0.6-0.6-0.6-1.5,0-2.1s1.5-0.6,2.1,0l10.4,10.4
			c0.6,0.6,0.6,1.5,0,2.1C-49.1,946-49.5,946.1-49.9,946.1z"/>
	</g>
</g>
<g id="right_x5F_shoe">
	<g>
		<path class="st10" d="M157.7,1078.9v-42.2l0,0c11.5,3.7,23.1,3.7,34.8,0.2c47.6,7.2,56.9,31.1,58.5,41.5c0.4,3-2.4,5.5-6.3,5.5
			h-80.7C160.6,1083.8,157.7,1081.6,157.7,1078.9z"/>
	</g>
	<g>
		<polygon class="st11" points="157.7,1082.4 157.7,1089.1 182.9,1089.1 182.9,1086.9 251.1,1086.9 251.1,1082.4 		"/>
	</g>
	<g>
		<path class="st11" d="M217.2,1060c0.4,0,0.8-0.1,1.1-0.4l10.4-10.4c0.6-0.6,0.6-1.5,0-2.1c-0.6-0.6-1.5-0.6-2.1,0l-10.4,10.4
			c-0.6,0.6-0.6,1.5,0,2.1C216.4,1059.8,216.8,1060,217.2,1060z"/>
	</g>
	<g>
		<path class="st11" d="M210,1056.4c0.4,0,0.8-0.1,1.1-0.4l10.4-10.4c0.6-0.6,0.6-1.5,0-2.1s-1.5-0.6-2.1,0l-10.4,10.4
			c-0.6,0.6-0.6,1.5,0,2.1C209.2,1056.2,209.6,1056.4,210,1056.4z"/>
	</g>
	<g>
		<path class="st11" d="M202.4,1053.5c0.4,0,0.8-0.1,1.1-0.4l10.4-10.4c0.6-0.6,0.6-1.5,0-2.1s-1.5-0.6-2.1,0l-10.4,10.4
			c-0.6,0.6-0.6,1.5,0,2.1C201.7,1053.3,202.1,1053.5,202.4,1053.5z"/>
	</g>
</g>
<path id="bow_x5F_tie" class="st10" d="M275.7,320.7v24.8c0,1.7-1.9,2.7-3.3,1.9l-16.2-9.7c-1.4,1.9-3.6,3.1-6.1,3.1
	c-2.4,0-4.6-1.1-6-2.9l-15.9,9.5c-1.5,0.9-3.3-0.2-3.3-1.9v-24.8c0-1.7,1.9-2.7,3.3-1.9l15.9,9.5c1.4-1.8,3.6-2.9,6-2.9
	c2.5,0,4.7,1.2,6.1,3.1l16.2-9.7C273.8,318,275.7,319,275.7,320.7z"/>
<line class="st12" x1="579.6" y1="235.4" x2="579.6" y2="329.4"/>
<polygon class="st10" points="575.3,495.2 575.3,469.6 596.6,482.4 "/>
<polygon class="st10" points="575.3,495.2 575.3,469.6 596.6,482.4 "/>
<path id="open_mouth" class="st10" d="M270.5,265c0,11.1-9,12.8-20,12.8c-11.1,0-20-1.8-20-12.8c0-11.1,9-20,20-20
	C261.6,245,270.5,253.9,270.5,265z"/>
<g id="hungry_x5F_line">
	<g>
		<path class="st13" d="M60.3,311v22.7H54V311H60.3z"/>
		<path class="st13" d="M90,329.9h-8l-1.2,3.8h-6.6l8.3-22.6h7.3l8.3,22.6h-6.7L90,329.9z M88.4,325.2l-2.4-7.4l-2.5,7.4H88.4z"/>
		<path class="st13" d="M126.1,311.1v22.6h-6.2v-12.8l-4.2,12.8h-5.4l-4.2-12.8v12.8h-6.3v-22.6h7.7l5.6,14.7l5.4-14.7H126.1z"/>
		<path class="st13" d="M157.3,330.6c-0.6,1-1.6,1.8-2.8,2.4c-1.2,0.6-2.7,0.9-4.4,0.9c-2.6,0-4.8-0.6-6.5-1.9
			c-1.7-1.3-2.6-3.1-2.8-5.4h6.7c0.1,0.8,0.3,1.4,0.7,1.8c0.4,0.4,0.9,0.6,1.6,0.6c0.6,0,1-0.1,1.3-0.4c0.3-0.3,0.5-0.7,0.5-1.2
			c0-0.7-0.3-1.2-0.9-1.6c-0.6-0.4-1.6-0.8-2.9-1.2c-1.4-0.5-2.6-1-3.5-1.4c-0.9-0.5-1.7-1.2-2.4-2.1c-0.7-0.9-1-2.1-1-3.6
			c0-1.4,0.4-2.6,1.1-3.6s1.7-1.8,3-2.3c1.3-0.5,2.7-0.8,4.3-0.8c2.6,0,4.7,0.6,6.2,1.8c1.5,1.2,2.4,2.9,2.5,5.2h-6.8
			c-0.1-0.7-0.3-1.2-0.7-1.6c-0.4-0.3-0.8-0.5-1.4-0.5c-0.5,0-0.9,0.1-1.2,0.4c-0.3,0.3-0.4,0.6-0.4,1.2c0,0.6,0.3,1.1,0.9,1.5
			c0.6,0.4,1.6,0.8,2.9,1.2c1.4,0.5,2.6,1,3.6,1.5c0.9,0.5,1.7,1.2,2.4,2.1c0.7,0.9,1,2.2,1,3.6C158.3,328.4,158,329.6,157.3,330.6z
			"/>
		<path class="st13" d="M177.8,312.2c1.8,1,3.1,2.4,4.2,4.1c1,1.8,1.5,3.8,1.5,6c0,2.2-0.5,4.2-1.5,6c-1,1.8-2.4,3.2-4.2,4.1
			c-1.8,1-3.7,1.5-5.8,1.5c-2.1,0-4.1-0.5-5.8-1.5c-1.8-1-3.2-2.4-4.2-4.1c-1-1.8-1.5-3.8-1.5-6c0-2.2,0.5-4.2,1.5-6
			c1-1.8,2.4-3.2,4.2-4.1c1.8-1,3.7-1.5,5.8-1.5C174.1,310.7,176,311.2,177.8,312.2z M168.2,318c-0.9,1-1.4,2.4-1.4,4.2
			c0,1.7,0.5,3.1,1.4,4.2c0.9,1,2.2,1.6,3.8,1.6c1.6,0,2.8-0.5,3.7-1.6c0.9-1,1.4-2.4,1.4-4.2c0-1.8-0.5-3.2-1.4-4.2
			s-2.2-1.6-3.8-1.6S169.1,317,168.2,318z"/>
	</g>
	<g id="HUNGRY">
		<path class="st13" d="M330.7,311v22.7h-6.3v-9.2h-7.7v9.2h-6.3V311h6.3v8.5h7.7V311H330.7z"/>
		<path class="st13" d="M340.4,311V324c0,1.3,0.3,2.3,0.8,3c0.6,0.7,1.4,1,2.6,1c1.2,0,2-0.4,2.6-1.1c0.6-0.7,0.9-1.7,0.9-2.9V311
			h6.3V324c0,2.1-0.4,3.9-1.3,5.4c-0.9,1.5-2,2.6-3.5,3.4c-1.5,0.8-3.2,1.1-5.1,1.1s-3.5-0.4-5-1.1c-1.4-0.7-2.6-1.9-3.4-3.4
			c-0.8-1.5-1.2-3.3-1.2-5.5V311H340.4z"/>
		<path class="st13" d="M377.8,333.7h-6.3l-8.3-12.6v12.6h-6.3v-22.6h6.3l8.3,12.8v-12.8h6.3V333.7z"/>
		<path class="st13" d="M399.2,312.9c1.9,1.4,3,3.3,3.4,5.7h-6.6c-0.3-0.6-0.8-1.1-1.5-1.5c-0.7-0.4-1.4-0.5-2.3-0.5
			c-1.5,0-2.8,0.5-3.7,1.6c-0.9,1-1.4,2.4-1.4,4.1c0,2,0.5,3.5,1.5,4.5c1,1,2.4,1.5,4.3,1.5c1.1,0,2-0.3,2.8-0.8
			c0.8-0.5,1.5-1.3,1.9-2.3h-6.3v-4.5h11.5v6.2c-0.8,1.9-2.1,3.5-3.9,4.8c-1.8,1.3-4,2-6.7,2c-2.3,0-4.3-0.5-6-1.5
			c-1.7-1-3.1-2.3-4-4.1c-0.9-1.7-1.4-3.7-1.4-6c0-2.2,0.5-4.2,1.4-6c0.9-1.7,2.2-3.1,4-4.1c1.7-1,3.7-1.5,6-1.5
			C394.9,310.8,397.3,311.5,399.2,312.9z"/>
		<path class="st13" d="M417,333.7l-4.6-8.4h-0.6v8.4h-6.3V311h10c1.8,0,3.4,0.3,4.6,0.9c1.3,0.6,2.2,1.5,2.9,2.6
			c0.6,1.1,1,2.4,1,3.7c0,1.6-0.4,2.9-1.3,4.1c-0.9,1.2-2.1,2-3.8,2.4l5.2,8.8H417z M411.8,321.1h3.1c1.7,0,2.6-0.8,2.6-2.4
			c0-0.7-0.2-1.3-0.7-1.8c-0.4-0.4-1.1-0.6-2-0.6h-3.1V321.1z"/>
		<path class="st13" d="M447.1,311l-8,15.5v7.2h-6.3v-7.2l-8-15.5h7.2l4,8.6l4-8.6H447.1z"/>
	</g>
</g>
<g id="right_sock">
	<g>
		<path class="st4" d="M187,673.4c0,0-33.9-0.1-51.5,11.3c-9.1,5.9-12.6,25.2-1.3,35.3c12,10.8,95.5,12.3,95.5-12.2
			c-0.1-26.7-0.7-67.3-0.7-67.3l-42.2,0.4L187,673.4z"/>
	</g>
	<g>
		<rect x="186.8" y="646.4" class="st14" width="42.2" height="3"/>
	</g>
	<g>
		<path class="st14" d="M229.6,707.8c0-5.6-0.1-11.9-0.1-18.2c-11,1-19.7,12.1-19.7,25.6c0,2.9,0.4,5.6,1.1,8.2
			C222,720.2,229.6,715.2,229.6,707.8z"/>
	</g>
	<path class="st14" d="M134.2,720c1.9,1.7,5.5,3.1,10.3,4.3c5.2-5.4,7.2-13.7,7.2-23c0-8.5-1.5-16.1-5.8-21.5
		c-3.8,1.3-7.3,2.9-10.3,4.9C126.4,690.5,122.9,709.9,134.2,720z"/>
</g>
<g id="left_sock">
	<g>
		<path class="st4" d="M315.9,673.4c0,0,33.9-0.1,51.5,11.3c9.1,5.9,12.6,25.2,1.3,35.3c-12,10.8-95.5,12.3-95.5-12.2
			c0.1-26.7,0.7-67.3,0.7-67.3l42.2,0.4L315.9,673.4z"/>
	</g>
	<g>
		<rect x="273.9" y="646.4" class="st14" width="42.2" height="3"/>
	</g>
	<g>
		<path class="st14" d="M273.3,707.8c0-5.6,0.1-11.9,0.1-18.2c11,1,19.7,12.1,19.7,25.6c0,2.9-0.4,5.6-1.1,8.2
			C280.9,720.2,273.3,715.2,273.3,707.8z"/>
	</g>
	<path class="st14" d="M368.7,720c-1.9,1.7-5.5,3.1-10.3,4.3c-5.2-5.4-7.2-13.7-7.2-23c0-8.5,1.5-16.1,5.8-21.5
		c3.8,1.3,7.3,2.9,10.3,4.9C376.5,690.5,379.9,709.9,368.7,720z"/>
</g>
</svg>
