<svg xmlns="http://www.w3.org/2000/svg" viewBox="0 0 332 587"><title>Asset 1</title><g id="Layer_2" data-name="Layer 2"><g id="Layer_1-2" data-name="Layer 1"><rect x="154.5" y="153" width="27" height="30" fill="#ffc476"/><circle cx="168" cy="81.5" r="81.5" fill="#ffc476"/><circle cx="167.69" cy="78.03" r="7.03" fill="#42403c"/></g><g id="Right_arm" data-name="Right arm"><rect x="191.63" y="228.92" width="134" height="29.38" rx="14.69" ry="14.69" transform="translate(345.13 588.21) rotate(-147.38)" fill="#ffc476"/><circle cx="307.5" cy="277.5" r="24.5" fill="#ffc476"/></g><g id="Left_arm" data-name="Left arm"><rect x="10.63" y="228.92" width="134" height="29.38" rx="14.69" ry="14.69" transform="matrix(0.84, -0.54, 0.54, 0.84, -119.08, 80.29)" fill="#ffc476"/><circle cx="24.5" cy="277.5" r="24.5" fill="#ffc476"/></g><g id="Right_leg" data-name="Right leg"><rect x="112.94" y="456.61" width="197.4" height="29.38" rx="14.69" ry="14.69" transform="translate(-259.67 682.94) rotate(-90)" fill="#ffc476"/><circle cx="211.5" cy="562.5" r="24.5" fill="#ffc476"/></g><g id="Left_leg" data-name="Left leg"><rect x="27.94" y="456.61" width="197.4" height="29.38" rx="14.69" ry="14.69" transform="translate(-344.67 597.94) rotate(-90)" fill="#ffc476"/><circle cx="126.5" cy="562.5" r="24.5" fill="#ffc476"/></g><g id="Body"><rect x="103" y="175" width="131" height="248" rx="65.5" ry="65.5" fill="#ffc476"/></g><g id="Eyes"><circle cx="141.74" cy="62.97" r="5.62" fill="#42403c"/><circle cx="194.26" cy="62.97" r="5.62" fill="#42403c"/></g><g id="Mouth"><path d="M196.5,90.86c-.4.4-1.58,17.09-18.43,23.81-6.84,2.72-14.5,1.74-21.09-1.53-14-7-18-22.13-17.48-22.27" fill="none" stroke="#42403c" stroke-linecap="round" stroke-linejoin="round" stroke-width="4"/></g></g></svg>