<?xml version="1.0" encoding="utf-8"?>
<!-- Generator: Adobe Illustrator 21.1.0, SVG Export Plug-In . SVG Version: 6.00 Build 0)  -->
<svg version="1.1" id="Layer_1" xmlns="http://www.w3.org/2000/svg" xmlns:xlink="http://www.w3.org/1999/xlink" x="0px" y="0px"
	 viewBox="0 0 500 800" style="enable-background:new 0 0 500 800;" xml:space="preserve">
<style type="text/css">
	.st0{fill:url(#SVGID_1_);}
	.st1{fill:#FFC476;}
	.st2{fill:#42403C;}
	.st3{fill:#4C4CD3;}
	.st4{fill:#FFFFFF;}
	.st5{fill:#E5E5E5;}
</style>
<linearGradient id="SVGID_1_" gradientUnits="userSpaceOnUse" x1="23.0347" y1="626.9653" x2="464.5557" y2="185.4443" gradientTransform="matrix(1 0 0 -1 0 800)">
	<stop  offset="0" style="stop-color:#E0EBFC"/>
	<stop  offset="1" style="stop-color:#EDFFE2"/>
</linearGradient>
<rect class="st0" width="500" height="800"/>
<rect x="236.5" y="300" class="st1" width="27" height="30"/>
<g>
	<circle class="st1" cx="250" cy="228.5" r="81.5"/>
</g>
<circle class="st2" cx="250" cy="225" r="7"/>
<g id="Right_arm">
	<path class="st1" d="M376.8,431.2l-88.1-56.4c-6.8-4.4-8.8-13.5-4.5-20.3l0,0c4.4-6.8,13.5-8.8,20.3-4.5l88.1,56.4
		c6.8,4.4,8.8,13.5,4.5,20.3l0,0C392.7,433.6,383.6,435.6,376.8,431.2z"/>
	<circle class="st1" cx="389.5" cy="424.5" r="24.5"/>
</g>
<g id="Left_arm">
	<path class="st1" d="M123.5,431.2l88.1-56.4c6.8-4.4,8.8-13.5,4.5-20.3l0,0c-4.4-6.8-13.5-8.8-20.3-4.5l-88.1,56.4
		c-6.8,4.4-8.8,13.5-4.5,20.3l0,0C107.6,433.6,116.7,435.6,123.5,431.2z"/>
	<circle class="st1" cx="106.5" cy="424.5" r="24.5"/>
</g>
<path class="st1" d="M308.3,702.3v-168c0-8.1-6.6-14.7-14.7-14.7l0,0c-8.1,0-14.7,6.6-14.7,14.7v168c0,8.1,6.6,14.7,14.7,14.7l0,0
	C301.7,717,308.3,710.4,308.3,702.3z"/>
<path class="st1" d="M223.3,702.3v-168c0-8.1-6.6-14.7-14.7-14.7l0,0c-8.1,0-14.7,6.6-14.7,14.7v168c0,8.1,6.6,14.7,14.7,14.7l0,0
	C216.7,717,223.3,710.4,223.3,702.3z"/>
<g id="Body">
	<g>
		<path class="st1" d="M250.5,570L250.5,570c-36.2,0-65.5-29.3-65.5-65.5v-117c0-36.2,29.3-65.5,65.5-65.5l0,0
			c36.2,0,65.5,29.3,65.5,65.5v117C316,540.7,286.7,570,250.5,570z"/>
	</g>
</g>
<g id="Eyes">
	<circle class="st2" cx="223.7" cy="210" r="5.6"/>
	<circle class="st2" cx="276.3" cy="210" r="5.6"/>
</g>
<g id="Mouth">
	<g id="meh">
		<path class="st2" d="M276.3,255.2h-52.6c-1,0-1.9-0.8-1.9-1.9s0.8-1.9,1.9-1.9h52.6c1,0,1.9,0.8,1.9,1.9S277.3,255.2,276.3,255.2z
			"/>
	</g>
</g>
<path class="st1" d="M217.5,717h-73.2c-3.5,0-6.1-2.3-5.7-5c1.8-11.3,13.7-37.8,84.7-37.8l0,0v38.3C223.3,715,220.7,717,217.5,717z"
	/>
<path class="st1" d="M284.7,717h73.2c3.5,0,6.1-2.3,5.7-5c-1.8-11.3-13.7-37.8-84.7-37.8l0,0v38.3C278.9,715,281.5,717,284.7,717z"
	/>
<g id="Shoes">
	<g>
		<polygon class="st3" points="226.5,717 226.5,726.6 135.3,726.6 135.3,717 155.1,717 144.7,688.5 173.1,674.5 190.5,717 		"/>
		<polygon class="st4" points="149.9,686 161.3,717 166.3,717 153.6,684.1 		"/>
		<polygon class="st4" points="157.5,682.2 170.3,717 175.3,717 161.2,680.4 		"/>
		<polygon class="st4" points="165.1,678.4 179.3,717 184.3,717 168.8,676.6 		"/>
	</g>
	<g>
		<polygon class="st3" points="276.1,717 276.1,726.6 367.2,726.6 367.2,717 347.4,717 357.8,688.5 329.4,674.5 312,717 		"/>
		<polygon class="st4" points="352.7,686 341.3,717 336.2,717 348.9,684.1 		"/>
		<polygon class="st4" points="345,682.2 332.3,717 327.2,717 341.3,680.4 		"/>
		<polygon class="st4" points="337.4,678.4 323.3,717 318.2,717 333.8,676.6 		"/>
	</g>
	<rect x="135.3" y="717" class="st5" width="91.1" height="9.6"/>
	<path class="st4" d="M187.3,671.7c0,0-52.6,1.1-52,45.3h91.1v-45.3"/>
</g>
</svg>
