<?xml version="1.0" encoding="utf-8"?>
<!-- Generator: Adobe Illustrator 21.1.0, SVG Export Plug-In . SVG Version: 6.00 Build 0)  -->
<svg version="1.1" id="Layer_1" xmlns="http://www.w3.org/2000/svg" xmlns:xlink="http://www.w3.org/1999/xlink" x="0px" y="0px"
	 viewBox="0 0 60 200" style="enable-background:new 0 0 60 200;" xml:space="preserve">
<style type="text/css">
	.st0{fill:#6B6B6A;}
</style>
<g>
	<g>
		<path class="st0" d="M52,45.4C52,26.6,41.1,4.6,29.8,4.6c-11.3,0-22.2,22-22.2,40.7c0,15.6,9.3,23.9,18.3,26.3v62.2
			c-1.1,11.8-4,26-4,35.3c0,7.7-0.9,27.1,7.9,27.1c8.3,0,7.9-19.4,7.9-27.1c0-9.1-1.8-22-4-35.3V71.7C42.7,69.3,52,61,52,45.4z"/>
	</g>
</g>
<path class="st0" d="M-110.3,82.6c9.1-2.4,11.5-10.8,11.5-26.3l-3.4-41.1h-3.3v41.5c0,1-0.8,1.8-1.8,1.8c-1,0-1.8-0.8-1.8-1.8V15.1
	h-3.2v41.5c0,1-0.8,1.8-1.8,1.8c-1,0-1.8-0.8-1.8-1.8V15.1h-3.2v41.5c0,1-0.8,1.8-1.8,1.8c-1,0-1.8-0.8-1.8-1.8V15.1h-3.3l-3.4,41.1
	c0,15.6,2.4,23.9,11.5,26.3v62.2c-1.1,11.8-4,26-4,35.3c0,7.7-0.9,27.1,7.9,27.1c8.3,0,7.9-19.4,7.9-27.1c0-9.1-1.8-22-4-35.3V82.6z
	"/>
<g>
	<path class="st0" d="M-46.2,100.3h3.9c8.2,0,6.8-8.5,6.8-8.5s5.3-107.1-19.7-99.7v111.4v84.9c0,11.7,3.1,19.1,7.8,19.1
		c4.7,0,5.6-7.5,5.6-19.2c0-18-4.5-27.7-4.5-38V100.3z"/>
</g>
</svg>
